<mxfile host="app.diagrams.net" modified="2024-01-25T18:04:02.212Z" agent="Mozilla/5.0 (Windows NT 10.0; Win64; x64) AppleWebKit/537.36 (KHTML, like Gecko) Chrome/120.0.0.0 Safari/537.36" etag="VeRPyP-goup9k-r7WpUT" version="23.0.2" type="device">
  <diagram name="PÃ¡gina-1" id="vqmnIdr3jlPqxfzyvGuw">
    <mxGraphModel dx="2623" dy="1853" grid="1" gridSize="10" guides="1" tooltips="1" connect="1" arrows="1" fold="1" page="1" pageScale="1" pageWidth="827" pageHeight="1169" math="0" shadow="0">
      <root>
        <mxCell id="0" />
        <mxCell id="1" parent="0" />
        <mxCell id="FLqp7j2gz_ZH5IPbXqNL-13" style="edgeStyle=orthogonalEdgeStyle;rounded=0;orthogonalLoop=1;jettySize=auto;html=1;" edge="1" parent="1" source="FLqp7j2gz_ZH5IPbXqNL-1" target="FLqp7j2gz_ZH5IPbXqNL-5">
          <mxGeometry relative="1" as="geometry" />
        </mxCell>
        <mxCell id="FLqp7j2gz_ZH5IPbXqNL-29" style="edgeStyle=orthogonalEdgeStyle;rounded=0;orthogonalLoop=1;jettySize=auto;html=1;entryX=0.5;entryY=1;entryDx=0;entryDy=0;" edge="1" parent="1" source="FLqp7j2gz_ZH5IPbXqNL-1" target="FLqp7j2gz_ZH5IPbXqNL-28">
          <mxGeometry relative="1" as="geometry" />
        </mxCell>
        <mxCell id="FLqp7j2gz_ZH5IPbXqNL-1" value="Empleados" style="rounded=0;whiteSpace=wrap;html=1;" vertex="1" parent="1">
          <mxGeometry x="-40" y="120" width="120" height="50" as="geometry" />
        </mxCell>
        <mxCell id="FLqp7j2gz_ZH5IPbXqNL-35" style="edgeStyle=orthogonalEdgeStyle;rounded=0;orthogonalLoop=1;jettySize=auto;html=1;entryX=0.5;entryY=1;entryDx=0;entryDy=0;exitX=0;exitY=0;exitDx=0;exitDy=0;" edge="1" parent="1" source="FLqp7j2gz_ZH5IPbXqNL-2" target="FLqp7j2gz_ZH5IPbXqNL-34">
          <mxGeometry relative="1" as="geometry" />
        </mxCell>
        <mxCell id="FLqp7j2gz_ZH5IPbXqNL-2" value="Departamentos" style="rounded=0;whiteSpace=wrap;html=1;" vertex="1" parent="1">
          <mxGeometry x="-40" y="-210" width="120" height="60" as="geometry" />
        </mxCell>
        <mxCell id="FLqp7j2gz_ZH5IPbXqNL-17" style="edgeStyle=orthogonalEdgeStyle;rounded=0;orthogonalLoop=1;jettySize=auto;html=1;entryX=1;entryY=0.5;entryDx=0;entryDy=0;" edge="1" parent="1" target="FLqp7j2gz_ZH5IPbXqNL-1">
          <mxGeometry relative="1" as="geometry">
            <mxPoint x="170" y="145" as="sourcePoint" />
          </mxGeometry>
        </mxCell>
        <mxCell id="FLqp7j2gz_ZH5IPbXqNL-5" value="Nombre" style="ellipse;whiteSpace=wrap;html=1;" vertex="1" parent="1">
          <mxGeometry x="-160" y="125" width="90" height="50" as="geometry" />
        </mxCell>
        <mxCell id="FLqp7j2gz_ZH5IPbXqNL-6" value="apellido" style="ellipse;whiteSpace=wrap;html=1;" vertex="1" parent="1">
          <mxGeometry x="-150" y="190" width="90" height="50" as="geometry" />
        </mxCell>
        <mxCell id="FLqp7j2gz_ZH5IPbXqNL-15" style="edgeStyle=orthogonalEdgeStyle;rounded=0;orthogonalLoop=1;jettySize=auto;html=1;entryX=0.25;entryY=1;entryDx=0;entryDy=0;" edge="1" parent="1" source="FLqp7j2gz_ZH5IPbXqNL-7" target="FLqp7j2gz_ZH5IPbXqNL-1">
          <mxGeometry relative="1" as="geometry" />
        </mxCell>
        <mxCell id="FLqp7j2gz_ZH5IPbXqNL-7" value="Salario" style="ellipse;whiteSpace=wrap;html=1;" vertex="1" parent="1">
          <mxGeometry x="-190" y="250" width="80" height="40" as="geometry" />
        </mxCell>
        <mxCell id="FLqp7j2gz_ZH5IPbXqNL-20" style="edgeStyle=orthogonalEdgeStyle;rounded=0;orthogonalLoop=1;jettySize=auto;html=1;" edge="1" parent="1" source="FLqp7j2gz_ZH5IPbXqNL-9" target="FLqp7j2gz_ZH5IPbXqNL-19">
          <mxGeometry relative="1" as="geometry" />
        </mxCell>
        <mxCell id="FLqp7j2gz_ZH5IPbXqNL-24" style="edgeStyle=orthogonalEdgeStyle;rounded=0;orthogonalLoop=1;jettySize=auto;html=1;entryX=1;entryY=0.5;entryDx=0;entryDy=0;exitX=0;exitY=0.5;exitDx=0;exitDy=0;" edge="1" parent="1" source="FLqp7j2gz_ZH5IPbXqNL-9" target="FLqp7j2gz_ZH5IPbXqNL-23">
          <mxGeometry relative="1" as="geometry" />
        </mxCell>
        <mxCell id="FLqp7j2gz_ZH5IPbXqNL-9" value="Cargo" style="rounded=0;whiteSpace=wrap;html=1;" vertex="1" parent="1">
          <mxGeometry x="360" y="110" width="120" height="60" as="geometry" />
        </mxCell>
        <mxCell id="FLqp7j2gz_ZH5IPbXqNL-10" value="Fecha de inicio" style="ellipse;whiteSpace=wrap;html=1;" vertex="1" parent="1">
          <mxGeometry x="140" y="260" width="90" height="50" as="geometry" />
        </mxCell>
        <mxCell id="FLqp7j2gz_ZH5IPbXqNL-11" value="&lt;u&gt;Num_Empleado&lt;/u&gt;" style="ellipse;whiteSpace=wrap;html=1;" vertex="1" parent="1">
          <mxGeometry x="-150" y="70" width="90" height="50" as="geometry" />
        </mxCell>
        <mxCell id="FLqp7j2gz_ZH5IPbXqNL-12" style="edgeStyle=orthogonalEdgeStyle;rounded=0;orthogonalLoop=1;jettySize=auto;html=1;exitX=0;exitY=0;exitDx=0;exitDy=0;entryX=0.956;entryY=0.86;entryDx=0;entryDy=0;entryPerimeter=0;" edge="1" parent="1" source="FLqp7j2gz_ZH5IPbXqNL-1" target="FLqp7j2gz_ZH5IPbXqNL-11">
          <mxGeometry relative="1" as="geometry" />
        </mxCell>
        <mxCell id="FLqp7j2gz_ZH5IPbXqNL-14" style="edgeStyle=orthogonalEdgeStyle;rounded=0;orthogonalLoop=1;jettySize=auto;html=1;entryX=0;entryY=1;entryDx=0;entryDy=0;" edge="1" parent="1" source="FLqp7j2gz_ZH5IPbXqNL-6" target="FLqp7j2gz_ZH5IPbXqNL-1">
          <mxGeometry relative="1" as="geometry" />
        </mxCell>
        <mxCell id="FLqp7j2gz_ZH5IPbXqNL-16" style="edgeStyle=orthogonalEdgeStyle;rounded=0;orthogonalLoop=1;jettySize=auto;html=1;entryX=1;entryY=1;entryDx=0;entryDy=0;" edge="1" parent="1" source="FLqp7j2gz_ZH5IPbXqNL-10" target="FLqp7j2gz_ZH5IPbXqNL-1">
          <mxGeometry relative="1" as="geometry" />
        </mxCell>
        <mxCell id="FLqp7j2gz_ZH5IPbXqNL-19" value="&lt;u&gt;id_Cargo&lt;/u&gt;" style="ellipse;whiteSpace=wrap;html=1;" vertex="1" parent="1">
          <mxGeometry x="380" y="220" width="90" height="50" as="geometry" />
        </mxCell>
        <mxCell id="FLqp7j2gz_ZH5IPbXqNL-21" value="Cargo" style="ellipse;whiteSpace=wrap;html=1;" vertex="1" parent="1">
          <mxGeometry x="490" y="200" width="90" height="50" as="geometry" />
        </mxCell>
        <mxCell id="FLqp7j2gz_ZH5IPbXqNL-23" value="Asigna un cargo" style="rhombus;whiteSpace=wrap;html=1;" vertex="1" parent="1">
          <mxGeometry x="170" y="110" width="140" height="65" as="geometry" />
        </mxCell>
        <mxCell id="FLqp7j2gz_ZH5IPbXqNL-25" value="1" style="text;html=1;strokeColor=none;fillColor=none;align=center;verticalAlign=middle;whiteSpace=wrap;rounded=0;" vertex="1" parent="1">
          <mxGeometry x="110" y="110" width="60" height="30" as="geometry" />
        </mxCell>
        <mxCell id="FLqp7j2gz_ZH5IPbXqNL-26" value="N" style="text;html=1;strokeColor=none;fillColor=none;align=center;verticalAlign=middle;whiteSpace=wrap;rounded=0;" vertex="1" parent="1">
          <mxGeometry x="280" y="110" width="60" height="30" as="geometry" />
        </mxCell>
        <mxCell id="FLqp7j2gz_ZH5IPbXqNL-33" style="edgeStyle=orthogonalEdgeStyle;rounded=0;orthogonalLoop=1;jettySize=auto;html=1;entryX=0.5;entryY=1;entryDx=0;entryDy=0;" edge="1" parent="1" source="FLqp7j2gz_ZH5IPbXqNL-28" target="FLqp7j2gz_ZH5IPbXqNL-2">
          <mxGeometry relative="1" as="geometry" />
        </mxCell>
        <mxCell id="FLqp7j2gz_ZH5IPbXqNL-28" value="Asigna un departamento" style="rhombus;whiteSpace=wrap;html=1;" vertex="1" parent="1">
          <mxGeometry x="-60" y="-60" width="160" height="85" as="geometry" />
        </mxCell>
        <mxCell id="FLqp7j2gz_ZH5IPbXqNL-30" value="id_cargo" style="ellipse;whiteSpace=wrap;html=1;" vertex="1" parent="1">
          <mxGeometry x="110" y="190" width="90" height="50" as="geometry" />
        </mxCell>
        <mxCell id="FLqp7j2gz_ZH5IPbXqNL-31" style="edgeStyle=orthogonalEdgeStyle;rounded=0;orthogonalLoop=1;jettySize=auto;html=1;exitX=0.5;exitY=1;exitDx=0;exitDy=0;" edge="1" parent="1" source="FLqp7j2gz_ZH5IPbXqNL-10" target="FLqp7j2gz_ZH5IPbXqNL-10">
          <mxGeometry relative="1" as="geometry" />
        </mxCell>
        <mxCell id="FLqp7j2gz_ZH5IPbXqNL-32" style="edgeStyle=orthogonalEdgeStyle;rounded=0;orthogonalLoop=1;jettySize=auto;html=1;entryX=0.817;entryY=0.96;entryDx=0;entryDy=0;entryPerimeter=0;" edge="1" parent="1" source="FLqp7j2gz_ZH5IPbXqNL-30" target="FLqp7j2gz_ZH5IPbXqNL-1">
          <mxGeometry relative="1" as="geometry" />
        </mxCell>
        <mxCell id="FLqp7j2gz_ZH5IPbXqNL-34" value="&lt;u&gt;ID_depa&lt;/u&gt;" style="ellipse;whiteSpace=wrap;html=1;strokeColor=#000000;" vertex="1" parent="1">
          <mxGeometry x="-120" y="-300" width="90" height="50" as="geometry" />
        </mxCell>
        <mxCell id="FLqp7j2gz_ZH5IPbXqNL-37" style="edgeStyle=orthogonalEdgeStyle;rounded=0;orthogonalLoop=1;jettySize=auto;html=1;entryX=0;entryY=0.5;entryDx=0;entryDy=0;" edge="1" parent="1" source="FLqp7j2gz_ZH5IPbXqNL-36" target="FLqp7j2gz_ZH5IPbXqNL-2">
          <mxGeometry relative="1" as="geometry" />
        </mxCell>
        <mxCell id="FLqp7j2gz_ZH5IPbXqNL-36" value="Nombre" style="ellipse;whiteSpace=wrap;html=1;strokeColor=#000000;" vertex="1" parent="1">
          <mxGeometry x="-160" y="-220" width="90" height="50" as="geometry" />
        </mxCell>
        <mxCell id="FLqp7j2gz_ZH5IPbXqNL-38" value="1" style="text;html=1;strokeColor=none;fillColor=none;align=center;verticalAlign=middle;whiteSpace=wrap;rounded=0;" vertex="1" parent="1">
          <mxGeometry x="20" y="20" width="60" height="30" as="geometry" />
        </mxCell>
        <mxCell id="FLqp7j2gz_ZH5IPbXqNL-39" value="N" style="text;html=1;strokeColor=none;fillColor=none;align=center;verticalAlign=middle;whiteSpace=wrap;rounded=0;" vertex="1" parent="1">
          <mxGeometry x="10" y="-90" width="60" height="30" as="geometry" />
        </mxCell>
        <mxCell id="FLqp7j2gz_ZH5IPbXqNL-46" style="edgeStyle=orthogonalEdgeStyle;rounded=0;orthogonalLoop=1;jettySize=auto;html=1;entryX=1;entryY=0;entryDx=0;entryDy=0;" edge="1" parent="1" source="FLqp7j2gz_ZH5IPbXqNL-45" target="FLqp7j2gz_ZH5IPbXqNL-1">
          <mxGeometry relative="1" as="geometry" />
        </mxCell>
        <mxCell id="FLqp7j2gz_ZH5IPbXqNL-45" value="&lt;span style=&quot;border-color: var(--border-color);&quot;&gt;ID_depa&lt;/span&gt;" style="ellipse;whiteSpace=wrap;html=1;strokeColor=#000000;" vertex="1" parent="1">
          <mxGeometry x="60" y="50" width="90" height="50" as="geometry" />
        </mxCell>
        <mxCell id="FLqp7j2gz_ZH5IPbXqNL-56" style="edgeStyle=orthogonalEdgeStyle;rounded=0;orthogonalLoop=1;jettySize=auto;html=1;" edge="1" parent="1" source="FLqp7j2gz_ZH5IPbXqNL-57" target="FLqp7j2gz_ZH5IPbXqNL-61">
          <mxGeometry relative="1" as="geometry" />
        </mxCell>
        <mxCell id="FLqp7j2gz_ZH5IPbXqNL-57" value="Proyectos" style="rounded=0;whiteSpace=wrap;html=1;" vertex="1" parent="1">
          <mxGeometry x="174" y="447.5" width="120" height="60" as="geometry" />
        </mxCell>
        <mxCell id="FLqp7j2gz_ZH5IPbXqNL-58" style="edgeStyle=orthogonalEdgeStyle;rounded=0;orthogonalLoop=1;jettySize=auto;html=1;entryX=0;entryY=0.5;entryDx=0;entryDy=0;" edge="1" parent="1" source="FLqp7j2gz_ZH5IPbXqNL-59" target="FLqp7j2gz_ZH5IPbXqNL-57">
          <mxGeometry relative="1" as="geometry" />
        </mxCell>
        <mxCell id="FLqp7j2gz_ZH5IPbXqNL-67" style="edgeStyle=orthogonalEdgeStyle;rounded=0;orthogonalLoop=1;jettySize=auto;html=1;entryX=0.5;entryY=1;entryDx=0;entryDy=0;" edge="1" parent="1" source="FLqp7j2gz_ZH5IPbXqNL-59" target="FLqp7j2gz_ZH5IPbXqNL-1">
          <mxGeometry relative="1" as="geometry" />
        </mxCell>
        <mxCell id="FLqp7j2gz_ZH5IPbXqNL-59" value="Trabaja" style="rhombus;whiteSpace=wrap;html=1;" vertex="1" parent="1">
          <mxGeometry x="-36" y="447.5" width="140" height="65" as="geometry" />
        </mxCell>
        <mxCell id="FLqp7j2gz_ZH5IPbXqNL-60" value="&lt;u&gt;Num_Proyecto&lt;/u&gt;" style="ellipse;whiteSpace=wrap;html=1;strokeColor=#000000;" vertex="1" parent="1">
          <mxGeometry x="234" y="380" width="90" height="50" as="geometry" />
        </mxCell>
        <mxCell id="FLqp7j2gz_ZH5IPbXqNL-61" value="Nombre" style="ellipse;whiteSpace=wrap;html=1;strokeColor=#000000;" vertex="1" parent="1">
          <mxGeometry x="324" y="470" width="90" height="50" as="geometry" />
        </mxCell>
        <mxCell id="FLqp7j2gz_ZH5IPbXqNL-62" style="edgeStyle=orthogonalEdgeStyle;rounded=0;orthogonalLoop=1;jettySize=auto;html=1;entryX=0.022;entryY=0.64;entryDx=0;entryDy=0;entryPerimeter=0;" edge="1" parent="1" source="FLqp7j2gz_ZH5IPbXqNL-57" target="FLqp7j2gz_ZH5IPbXqNL-60">
          <mxGeometry relative="1" as="geometry" />
        </mxCell>
        <mxCell id="FLqp7j2gz_ZH5IPbXqNL-65" value="N" style="text;html=1;strokeColor=none;fillColor=none;align=center;verticalAlign=middle;whiteSpace=wrap;rounded=0;" vertex="1" parent="1">
          <mxGeometry x="-70" y="440" width="60" height="30" as="geometry" />
        </mxCell>
        <mxCell id="FLqp7j2gz_ZH5IPbXqNL-66" value="N" style="text;html=1;strokeColor=none;fillColor=none;align=center;verticalAlign=middle;whiteSpace=wrap;rounded=0;" vertex="1" parent="1">
          <mxGeometry x="74" y="440" width="60" height="30" as="geometry" />
        </mxCell>
        <mxCell id="FLqp7j2gz_ZH5IPbXqNL-69" style="edgeStyle=orthogonalEdgeStyle;rounded=0;orthogonalLoop=1;jettySize=auto;html=1;entryX=0.75;entryY=1;entryDx=0;entryDy=0;" edge="1" parent="1" source="FLqp7j2gz_ZH5IPbXqNL-68" target="FLqp7j2gz_ZH5IPbXqNL-1">
          <mxGeometry relative="1" as="geometry" />
        </mxCell>
        <mxCell id="FLqp7j2gz_ZH5IPbXqNL-68" value="Num_Proyecto" style="ellipse;whiteSpace=wrap;html=1;strokeColor=#000000;" vertex="1" parent="1">
          <mxGeometry x="74" y="320" width="90" height="50" as="geometry" />
        </mxCell>
      </root>
    </mxGraphModel>
  </diagram>
</mxfile>
